<mxfile host="app.diagrams.net" modified="2023-01-03T00:59:48.183Z" agent="5.0 (Windows NT 10.0; Win64; x64) AppleWebKit/537.36 (KHTML, like Gecko) Chrome/108.0.0.0 Safari/537.36" etag="uNtxEE9LmluD13GMrDLt" version="20.5.0" type="github">
  <diagram id="r4ur-zfl9ENtgprmow5h" name="Page-1">
    <mxGraphModel dx="2032" dy="1824" grid="1" gridSize="10" guides="1" tooltips="1" connect="1" arrows="1" fold="1" page="1" pageScale="1" pageWidth="850" pageHeight="1100" math="0" shadow="0">
      <root>
        <mxCell id="0" />
        <mxCell id="1" parent="0" />
        <mxCell id="Q2SEPZsP5HPs4pzICU3s-1" value="Employee" style="whiteSpace=wrap;html=1;align=center;" vertex="1" parent="1">
          <mxGeometry x="120" y="160" width="80" height="40" as="geometry" />
        </mxCell>
        <mxCell id="Q2SEPZsP5HPs4pzICU3s-2" value="Employee" style="whiteSpace=wrap;html=1;align=center;" vertex="1" parent="1">
          <mxGeometry x="375" y="510" width="100" height="40" as="geometry" />
        </mxCell>
        <mxCell id="Q2SEPZsP5HPs4pzICU3s-3" value="Employee" style="whiteSpace=wrap;html=1;align=center;" vertex="1" parent="1">
          <mxGeometry x="600" y="160" width="80" height="40" as="geometry" />
        </mxCell>
        <mxCell id="Q2SEPZsP5HPs4pzICU3s-4" value="has" style="shape=rhombus;perimeter=rhombusPerimeter;whiteSpace=wrap;html=1;align=center;" vertex="1" parent="1">
          <mxGeometry x="340" y="150" width="120" height="60" as="geometry" />
        </mxCell>
        <mxCell id="Q2SEPZsP5HPs4pzICU3s-8" value="" style="line;strokeWidth=1;rotatable=0;dashed=0;labelPosition=right;align=left;verticalAlign=middle;spacingTop=0;spacingLeft=6;points=[];portConstraint=eastwest;" vertex="1" parent="1">
          <mxGeometry x="200" y="175" width="140" height="10" as="geometry" />
        </mxCell>
        <mxCell id="Q2SEPZsP5HPs4pzICU3s-9" value="" style="line;strokeWidth=1;rotatable=0;dashed=0;labelPosition=right;align=left;verticalAlign=middle;spacingTop=0;spacingLeft=6;points=[];portConstraint=eastwest;" vertex="1" parent="1">
          <mxGeometry x="460" y="175" width="140" height="10" as="geometry" />
        </mxCell>
        <mxCell id="Q2SEPZsP5HPs4pzICU3s-10" value="emp_id&lt;br&gt;&lt;span style=&quot;font-family: sans-serif; font-size: 13.12px; text-align: left; background-color: rgb(253, 253, 254);&quot;&gt;varchar(20)&lt;/span&gt;" style="ellipse;whiteSpace=wrap;html=1;align=center;fontStyle=4;" vertex="1" parent="1">
          <mxGeometry x="-50" y="-50" width="100" height="40" as="geometry" />
        </mxCell>
        <mxCell id="Q2SEPZsP5HPs4pzICU3s-14" value="emp_name&lt;br&gt;varchar(50)" style="ellipse;whiteSpace=wrap;html=1;align=center;" vertex="1" parent="1">
          <mxGeometry x="60" y="-70" width="100" height="40" as="geometry" />
        </mxCell>
        <mxCell id="Q2SEPZsP5HPs4pzICU3s-15" value="emp_address&lt;br&gt;varchar(50)" style="ellipse;whiteSpace=wrap;html=1;align=center;" vertex="1" parent="1">
          <mxGeometry x="-90" width="100" height="40" as="geometry" />
        </mxCell>
        <mxCell id="Q2SEPZsP5HPs4pzICU3s-16" value="emp_phone_no&lt;br&gt;int" style="ellipse;whiteSpace=wrap;html=1;align=center;" vertex="1" parent="1">
          <mxGeometry x="220" y="10" width="100" height="40" as="geometry" />
        </mxCell>
        <mxCell id="Q2SEPZsP5HPs4pzICU3s-17" value="emp_email&lt;br&gt;varchar(50)" style="ellipse;whiteSpace=wrap;html=1;align=center;" vertex="1" parent="1">
          <mxGeometry x="170" y="-70" width="100" height="40" as="geometry" />
        </mxCell>
        <mxCell id="Q2SEPZsP5HPs4pzICU3s-18" value="d_o_a&lt;br&gt;date" style="ellipse;whiteSpace=wrap;html=1;align=center;" vertex="1" parent="1">
          <mxGeometry x="-100" y="50" width="100" height="40" as="geometry" />
        </mxCell>
        <mxCell id="Q2SEPZsP5HPs4pzICU3s-19" value="d_o_t&lt;br&gt;date" style="ellipse;whiteSpace=wrap;html=1;align=center;" vertex="1" parent="1">
          <mxGeometry x="-100" y="110" width="100" height="40" as="geometry" />
        </mxCell>
        <mxCell id="Q2SEPZsP5HPs4pzICU3s-20" value="salary&lt;br&gt;int" style="ellipse;whiteSpace=wrap;html=1;align=center;" vertex="1" parent="1">
          <mxGeometry x="240" y="70" width="100" height="40" as="geometry" />
        </mxCell>
        <mxCell id="Q2SEPZsP5HPs4pzICU3s-21" value="supervisor_id&lt;br&gt;varchar(20)" style="ellipse;whiteSpace=wrap;html=1;align=center;" vertex="1" parent="1">
          <mxGeometry x="-100" y="170" width="100" height="40" as="geometry" />
        </mxCell>
        <mxCell id="Q2SEPZsP5HPs4pzICU3s-26" value="" style="endArrow=none;html=1;rounded=0;entryX=0;entryY=0.75;entryDx=0;entryDy=0;" edge="1" parent="1" target="Q2SEPZsP5HPs4pzICU3s-1">
          <mxGeometry relative="1" as="geometry">
            <mxPoint y="129.5" as="sourcePoint" />
            <mxPoint x="160" y="129.5" as="targetPoint" />
          </mxGeometry>
        </mxCell>
        <mxCell id="Q2SEPZsP5HPs4pzICU3s-27" value="" style="endArrow=none;html=1;rounded=0;" edge="1" parent="1">
          <mxGeometry relative="1" as="geometry">
            <mxPoint y="190" as="sourcePoint" />
            <mxPoint x="120" y="200" as="targetPoint" />
          </mxGeometry>
        </mxCell>
        <mxCell id="Q2SEPZsP5HPs4pzICU3s-28" value="" style="endArrow=none;html=1;rounded=0;entryX=0;entryY=0.5;entryDx=0;entryDy=0;" edge="1" parent="1" target="Q2SEPZsP5HPs4pzICU3s-1">
          <mxGeometry relative="1" as="geometry">
            <mxPoint y="70" as="sourcePoint" />
            <mxPoint x="120" y="120.5" as="targetPoint" />
          </mxGeometry>
        </mxCell>
        <mxCell id="Q2SEPZsP5HPs4pzICU3s-29" value="" style="endArrow=none;html=1;rounded=0;entryX=0;entryY=0;entryDx=0;entryDy=0;" edge="1" parent="1" target="Q2SEPZsP5HPs4pzICU3s-1">
          <mxGeometry relative="1" as="geometry">
            <mxPoint x="10" y="20" as="sourcePoint" />
            <mxPoint x="130" y="70.5" as="targetPoint" />
          </mxGeometry>
        </mxCell>
        <mxCell id="Q2SEPZsP5HPs4pzICU3s-30" value="" style="endArrow=none;html=1;rounded=0;entryX=0.25;entryY=0;entryDx=0;entryDy=0;" edge="1" parent="1" target="Q2SEPZsP5HPs4pzICU3s-1">
          <mxGeometry relative="1" as="geometry">
            <mxPoint x="50" y="-30" as="sourcePoint" />
            <mxPoint x="170" y="20.5" as="targetPoint" />
          </mxGeometry>
        </mxCell>
        <mxCell id="Q2SEPZsP5HPs4pzICU3s-31" value="" style="endArrow=none;html=1;rounded=0;" edge="1" parent="1">
          <mxGeometry relative="1" as="geometry">
            <mxPoint x="110" y="-30" as="sourcePoint" />
            <mxPoint x="150" y="160" as="targetPoint" />
          </mxGeometry>
        </mxCell>
        <mxCell id="Q2SEPZsP5HPs4pzICU3s-32" value="" style="endArrow=none;html=1;rounded=0;entryX=0.5;entryY=0;entryDx=0;entryDy=0;" edge="1" parent="1" target="Q2SEPZsP5HPs4pzICU3s-1">
          <mxGeometry relative="1" as="geometry">
            <mxPoint x="210" y="-30" as="sourcePoint" />
            <mxPoint x="330" y="20.5" as="targetPoint" />
          </mxGeometry>
        </mxCell>
        <mxCell id="Q2SEPZsP5HPs4pzICU3s-33" value="" style="endArrow=none;html=1;rounded=0;entryX=0.75;entryY=0;entryDx=0;entryDy=0;exitX=0.1;exitY=0.75;exitDx=0;exitDy=0;exitPerimeter=0;" edge="1" parent="1" source="Q2SEPZsP5HPs4pzICU3s-16" target="Q2SEPZsP5HPs4pzICU3s-1">
          <mxGeometry relative="1" as="geometry">
            <mxPoint x="220" y="-20" as="sourcePoint" />
            <mxPoint x="170" y="170" as="targetPoint" />
          </mxGeometry>
        </mxCell>
        <mxCell id="Q2SEPZsP5HPs4pzICU3s-34" value="" style="endArrow=none;html=1;rounded=0;exitX=0;exitY=0.5;exitDx=0;exitDy=0;" edge="1" parent="1" source="Q2SEPZsP5HPs4pzICU3s-20">
          <mxGeometry relative="1" as="geometry">
            <mxPoint x="237" y="44" as="sourcePoint" />
            <mxPoint x="190" y="160" as="targetPoint" />
          </mxGeometry>
        </mxCell>
        <mxCell id="Q2SEPZsP5HPs4pzICU3s-35" value="1" style="text;strokeColor=none;fillColor=none;spacingLeft=4;spacingRight=4;overflow=hidden;rotatable=0;points=[[0,0.5],[1,0.5]];portConstraint=eastwest;fontSize=12;" vertex="1" parent="1">
          <mxGeometry x="210" y="155" width="40" height="30" as="geometry" />
        </mxCell>
        <mxCell id="Q2SEPZsP5HPs4pzICU3s-36" value="M" style="text;strokeColor=none;fillColor=none;spacingLeft=4;spacingRight=4;overflow=hidden;rotatable=0;points=[[0,0.5],[1,0.5]];portConstraint=eastwest;fontSize=12;" vertex="1" parent="1">
          <mxGeometry x="570" y="155" width="40" height="30" as="geometry" />
        </mxCell>
        <mxCell id="Q2SEPZsP5HPs4pzICU3s-37" value="Relationship" style="shape=rhombus;perimeter=rhombusPerimeter;whiteSpace=wrap;html=1;align=center;" vertex="1" parent="1">
          <mxGeometry x="-80" y="320" width="120" height="60" as="geometry" />
        </mxCell>
        <mxCell id="Q2SEPZsP5HPs4pzICU3s-38" value="" style="endArrow=none;html=1;rounded=0;entryX=0.25;entryY=1;entryDx=0;entryDy=0;" edge="1" parent="1" target="Q2SEPZsP5HPs4pzICU3s-1">
          <mxGeometry relative="1" as="geometry">
            <mxPoint x="40" y="350" as="sourcePoint" />
            <mxPoint x="200" y="350" as="targetPoint" />
          </mxGeometry>
        </mxCell>
        <mxCell id="Q2SEPZsP5HPs4pzICU3s-39" value="" style="endArrow=none;html=1;rounded=0;entryX=0.125;entryY=1;entryDx=0;entryDy=0;entryPerimeter=0;" edge="1" parent="1" target="Q2SEPZsP5HPs4pzICU3s-1">
          <mxGeometry relative="1" as="geometry">
            <mxPoint x="-80" y="350" as="sourcePoint" />
            <mxPoint x="120" y="200" as="targetPoint" />
          </mxGeometry>
        </mxCell>
        <mxCell id="Q2SEPZsP5HPs4pzICU3s-40" value="1" style="text;strokeColor=none;fillColor=none;spacingLeft=4;spacingRight=4;overflow=hidden;rotatable=0;points=[[0,0.5],[1,0.5]];portConstraint=eastwest;fontSize=12;" vertex="1" parent="1">
          <mxGeometry x="-80" y="310" width="40" height="30" as="geometry" />
        </mxCell>
        <mxCell id="Q2SEPZsP5HPs4pzICU3s-41" value="1" style="text;strokeColor=none;fillColor=none;spacingLeft=4;spacingRight=4;overflow=hidden;rotatable=0;points=[[0,0.5],[1,0.5]];portConstraint=eastwest;fontSize=12;" vertex="1" parent="1">
          <mxGeometry x="30" y="320" width="40" height="30" as="geometry" />
        </mxCell>
        <mxCell id="Q2SEPZsP5HPs4pzICU3s-42" value="username&lt;br&gt;varcahr(50)" style="ellipse;whiteSpace=wrap;html=1;align=center;" vertex="1" parent="1">
          <mxGeometry x="630" y="20" width="100" height="40" as="geometry" />
        </mxCell>
        <mxCell id="Q2SEPZsP5HPs4pzICU3s-43" value="password&lt;br&gt;varcahr(50)" style="ellipse;whiteSpace=wrap;html=1;align=center;" vertex="1" parent="1">
          <mxGeometry x="710" y="70" width="100" height="40" as="geometry" />
        </mxCell>
        <mxCell id="Q2SEPZsP5HPs4pzICU3s-44" value="user_type&lt;br&gt;varchar(20)" style="ellipse;whiteSpace=wrap;html=1;align=center;" vertex="1" parent="1">
          <mxGeometry x="750" y="120" width="100" height="40" as="geometry" />
        </mxCell>
        <mxCell id="Q2SEPZsP5HPs4pzICU3s-45" value="emp_id&lt;br&gt;varchar(20)" style="ellipse;whiteSpace=wrap;html=1;align=center;" vertex="1" parent="1">
          <mxGeometry x="740" y="190" width="100" height="40" as="geometry" />
        </mxCell>
        <mxCell id="Q2SEPZsP5HPs4pzICU3s-46" value="id" style="ellipse;whiteSpace=wrap;html=1;align=center;fontStyle=4;" vertex="1" parent="1">
          <mxGeometry x="510" y="50" width="100" height="40" as="geometry" />
        </mxCell>
        <mxCell id="Q2SEPZsP5HPs4pzICU3s-47" value="" style="endArrow=none;html=1;rounded=0;exitX=0.41;exitY=1.05;exitDx=0;exitDy=0;exitPerimeter=0;" edge="1" parent="1" source="Q2SEPZsP5HPs4pzICU3s-46">
          <mxGeometry relative="1" as="geometry">
            <mxPoint x="540" y="109" as="sourcePoint" />
            <mxPoint x="610" y="160" as="targetPoint" />
          </mxGeometry>
        </mxCell>
        <mxCell id="Q2SEPZsP5HPs4pzICU3s-49" value="" style="endArrow=none;html=1;rounded=0;exitX=0.38;exitY=1.025;exitDx=0;exitDy=0;exitPerimeter=0;entryX=0.375;entryY=-0.025;entryDx=0;entryDy=0;entryPerimeter=0;" edge="1" parent="1" source="Q2SEPZsP5HPs4pzICU3s-42" target="Q2SEPZsP5HPs4pzICU3s-3">
          <mxGeometry relative="1" as="geometry">
            <mxPoint x="660" y="60" as="sourcePoint" />
            <mxPoint x="719" y="128" as="targetPoint" />
          </mxGeometry>
        </mxCell>
        <mxCell id="Q2SEPZsP5HPs4pzICU3s-50" value="" style="endArrow=none;html=1;rounded=0;exitX=0;exitY=1;exitDx=0;exitDy=0;" edge="1" parent="1" source="Q2SEPZsP5HPs4pzICU3s-43">
          <mxGeometry relative="1" as="geometry">
            <mxPoint x="710" y="101" as="sourcePoint" />
            <mxPoint x="650" y="160" as="targetPoint" />
          </mxGeometry>
        </mxCell>
        <mxCell id="Q2SEPZsP5HPs4pzICU3s-51" value="" style="endArrow=none;html=1;rounded=0;exitX=0.04;exitY=0.775;exitDx=0;exitDy=0;exitPerimeter=0;entryX=1;entryY=0.25;entryDx=0;entryDy=0;" edge="1" parent="1" target="Q2SEPZsP5HPs4pzICU3s-3">
          <mxGeometry relative="1" as="geometry">
            <mxPoint x="750" y="141" as="sourcePoint" />
            <mxPoint x="686" y="200" as="targetPoint" />
          </mxGeometry>
        </mxCell>
        <mxCell id="Q2SEPZsP5HPs4pzICU3s-52" value="" style="endArrow=none;html=1;rounded=0;exitX=0;exitY=0.5;exitDx=0;exitDy=0;exitPerimeter=0;entryX=1;entryY=0.25;entryDx=0;entryDy=0;" edge="1" parent="1" source="Q2SEPZsP5HPs4pzICU3s-45">
          <mxGeometry relative="1" as="geometry">
            <mxPoint x="750" y="161" as="sourcePoint" />
            <mxPoint x="680" y="190" as="targetPoint" />
          </mxGeometry>
        </mxCell>
      </root>
    </mxGraphModel>
  </diagram>
</mxfile>
